# Blender 4.1.1
# www.blender.org
mtllib stage_floor.mtl
o Floor
v 10.071413 1.422581 -6.433224
v 10.070839 1.191638 -6.432512
v -9.317479 1.470784 -6.439862
v -9.318053 1.239841 -6.439150
v 10.066949 1.463696 6.903484
v 10.066375 1.232753 6.904195
v -9.321943 1.511899 6.896846
v -9.322517 1.280956 6.897558
vn 0.0003 -0.0031 -1.0000
vn -1.0000 0.0025 -0.0003
vn -0.0003 0.0031 1.0000
vn 1.0000 -0.0025 0.0003
vn 0.0025 1.0000 -0.0031
vn -0.0025 -1.0000 0.0031
vt 0.000000 0.000000
vt 1.000000 0.000000
vt 1.000000 1.000000
vt 0.000000 1.000000
s 0
usemtl floor
f 1/1/1 2/2/1 4/3/1 3/4/1
f 3/1/2 4/2/2 8/3/2 7/4/2
f 7/1/3 8/2/3 6/3/3 5/4/3
f 5/1/4 6/2/4 2/3/4 1/4/4
f 3/1/5 7/2/5 5/3/5 1/4/5
f 8/1/6 4/2/6 2/3/6 6/4/6
